<svg width="69" height="23" viewBox="0 0 69 23" fill="none" xmlns="http://www.w3.org/2000/svg">
<path d="M1.60289 13.1689C1.69765 13.166 1.79501 13.1815 1.88902 13.2178L4.20543 14.1123C4.58167 14.2577 4.76878 14.6814 4.62339 15.0576C4.47792 15.4335 4.05512 15.6207 3.67906 15.4756L3.63707 15.459C5.96365 19.5048 11.0558 21.1268 15.3285 19.0703C17.2413 18.1496 18.6788 16.6437 19.5316 14.8691C19.8189 14.2713 20.5363 14.0194 21.1341 14.3066C21.7319 14.5939 21.9838 15.3114 21.6966 15.9092C20.6163 18.1574 18.7919 20.0698 16.3705 21.2353C10.8777 23.8791 4.31546 21.7243 1.42906 16.4326L1.41246 16.4785C1.26706 16.8548 0.843396 17.0419 0.467144 16.8965C0.0911266 16.751 -0.0959898 16.3283 0.0491754 15.9521L0.944683 13.6357C0.946928 13.6299 0.949144 13.6239 0.951519 13.6182C0.965958 13.5834 0.982362 13.5498 1.00132 13.5185C1.04341 13.4493 1.09649 13.3891 1.1566 13.3389C1.19112 13.31 1.22899 13.2836 1.26793 13.2617C1.28037 13.2547 1.2932 13.2484 1.30601 13.2422C1.31138 13.2396 1.31718 13.2368 1.32261 13.2344C1.32806 13.2319 1.33371 13.2299 1.33921 13.2275C1.34624 13.2245 1.35359 13.2215 1.3607 13.2187C1.39178 13.2066 1.42387 13.1963 1.4564 13.1885C1.50416 13.177 1.55322 13.1705 1.60289 13.1689ZM67.4466 8.0703C68.0387 8.07045 68.4748 8.49823 68.475 9.08202C68.475 9.24656 68.4414 9.41976 68.3509 9.6748L65.7269 17.2021C65.0441 19.1601 64.032 19.9668 62.2796 19.9668C61.7121 19.9668 61.268 19.8347 61.013 19.5879C60.8568 19.4316 60.7748 19.2342 60.7748 19.0039C60.7749 18.6009 61.0871 18.3047 61.556 18.3047C61.7287 18.3047 61.8767 18.3457 62.1234 18.3457C62.6169 18.3457 63.0283 17.9841 63.2093 17.4248C63.2339 17.3756 63.3163 17.0151 63.3168 16.956L60.7494 9.6748C60.6671 9.43632 60.6429 9.24708 60.6429 9.09081C60.6429 8.5067 61.0952 8.0703 61.7123 8.0703C62.2963 8.07033 62.6665 8.40816 62.8392 9.10741L64.5336 15.0547H64.6244L66.3353 9.10741C66.5163 8.40813 66.879 8.0703 67.4466 8.0703ZM48.6722 8.03808C49.355 8.03808 49.7503 8.47362 49.7503 9.23046V17.2598C49.7503 18.9461 48.7961 19.9002 47.1263 19.9004C46.6164 19.9004 46.2292 19.8024 45.9906 19.6133C45.8014 19.4652 45.7025 19.2589 45.7025 19.0039C45.7026 18.5763 45.9988 18.3048 46.4593 18.3047C46.5662 18.3047 46.7307 18.3135 46.8294 18.3135C47.3642 18.3135 47.5862 17.9758 47.5863 17.0381V9.23046C47.5863 8.47374 47.9732 8.03821 48.6722 8.03808ZM41.9261 7.93066C44.1474 7.93066 45.7191 9.51056 45.7191 11.666C45.719 12.6446 45.4394 12.9657 44.6253 12.9658H40.2074V13.3437C40.2156 14.5613 40.989 15.3428 42.2806 15.3428C42.955 15.3427 43.4321 15.1782 43.8187 14.8574C44.2382 14.5367 44.3867 14.4131 44.724 14.4131C45.1762 14.4132 45.4886 14.7261 45.4886 15.2031C45.4886 15.5896 45.2503 15.9597 44.8392 16.2559C44.2633 16.7412 43.2671 17.0381 42.14 17.0381C39.5817 17.0379 38.0023 15.5318 38.0023 13.0557V11.9287C38.0024 9.54316 39.5817 7.93083 41.9261 7.93066ZM55.6244 7.93066C58.0019 7.93069 59.6468 9.43619 59.6468 11.9453V12.9736C59.6468 15.5651 58.0019 17.038 55.6244 17.0381C53.2387 17.0381 51.5933 15.5654 51.5931 12.9824V11.9541C51.5931 9.43666 53.2386 7.93066 55.6244 7.93066ZM32.638 5.61913C35.0402 5.61913 36.5296 6.93516 36.5296 9.05761C36.5296 10.4807 35.7975 11.616 34.5472 12.1426L36.1761 15.1289C36.2995 15.351 36.3734 15.6315 36.3734 15.8701C36.3731 16.4704 35.9042 16.8984 35.2709 16.8984C34.6868 16.8984 34.3744 16.6507 34.0043 15.9267L32.35 12.6689H30.3099V15.7295C30.3099 16.4864 29.9067 16.9307 29.2074 16.9307C28.5001 16.9305 28.0892 16.4862 28.0892 15.7295V7.31347C28.0893 6.14545 28.5989 5.61919 29.7669 5.61913H32.638ZM6.43003 11.331C7.02757 11.0432 7.74566 11.2951 8.03355 11.8926C8.39792 12.6487 9.01149 13.2903 9.83043 13.6836C11.7472 14.6037 14.0476 13.7989 14.9681 11.8916C15.2565 11.2944 15.9744 11.0439 16.5716 11.332C17.1687 11.6204 17.4193 12.3383 17.1312 12.9355C15.6333 16.0392 11.8989 17.3413 8.79136 15.8496C7.46415 15.2124 6.46238 14.1651 5.86949 12.9346C5.58188 12.3371 5.83275 11.619 6.43003 11.331ZM55.6244 9.61718C54.5137 9.61718 53.8226 10.5225 53.8226 11.9951V12.9658C53.8227 14.4547 54.5138 15.3516 55.6244 15.3516C56.7513 15.3515 57.4173 14.4547 57.4173 12.9658V11.9951C57.4173 10.5225 56.7514 9.61723 55.6244 9.61718ZM41.9593 9.60937C40.8899 9.6094 40.2074 10.3988 40.2074 11.5752V11.5918H43.6459V11.5752C43.6459 10.3823 42.9877 9.60937 41.9593 9.60937ZM30.3099 11.0078H32.3177C33.5763 11.0077 34.3002 10.3822 34.3002 9.23046C34.3001 8.08696 33.5679 7.43749 32.3421 7.43749H30.3099V11.0078ZM9.00816 7.51952C9.87862 7.51959 10.5842 8.22524 10.5843 9.09569C10.5843 9.96619 9.87865 10.6718 9.00816 10.6719C8.13779 10.6717 7.43204 9.9661 7.43199 9.09569C7.43209 8.22533 8.13782 7.51973 9.00816 7.51952ZM13.9623 7.51952C14.8328 7.51952 15.5393 8.2252 15.5394 9.09569C15.5394 9.96623 14.8328 10.6719 13.9623 10.6719C13.0919 10.6717 12.3861 9.96612 12.3861 9.09569C12.3862 8.22531 13.0919 7.51971 13.9623 7.51952ZM6.59507 1.12987C12.0973 -1.51839 18.6724 0.64849 21.5511 5.95995L21.557 5.94335C21.7001 5.57322 22.1165 5.38917 22.4867 5.53222C22.8566 5.67545 23.0398 6.09186 22.8968 6.46191L22.0179 8.73827L22.0169 8.74023C21.8739 9.11043 21.4575 9.29442 21.0873 9.15136L18.8089 8.27148C18.4388 8.12843 18.2538 7.71197 18.3968 7.34179C18.5399 6.97159 18.9563 6.7876 19.3265 6.93066L19.347 6.93847C17.0291 2.86902 11.921 1.23219 7.63707 3.29394C5.72419 4.21465 4.28675 5.72143 3.43394 7.49608C3.14666 8.09393 2.42925 8.34585 1.8314 8.05858C1.23357 7.77131 0.981661 7.05389 1.2689 6.45605C2.34922 4.20782 4.17359 2.29541 6.59507 1.12987ZM48.6644 4.77148C49.3801 4.77151 49.8988 5.24909 49.8988 5.90722C49.8986 6.56516 49.38 7.05073 48.6644 7.05077C47.9653 7.05077 47.439 6.56518 47.4388 5.90722C47.4388 5.25729 47.9569 4.77148 48.6644 4.77148Z" fill="white" fill-opacity="0.5"/>
</svg>
